# xmcd
#
# Track frame offsets:
#	151
#	34460
#	49267
#	61588
#	74993
#	87846
#	96983
#	108406
#	122039
#	135870
#	151637
#	164150
#	180871
#	193112
#	203827
#	217854
#	230053
#
# Disc length: 3273
#
# Revision: 1
# Processed by: cddbd v1.5.1PL0 Copyright (c) Steve Scherf et al.
# Submitted via: CDex 1.50
# Normalized: r0:DSETVAR1,TDELIM( - )
#
DISCID=ef0cc711
DTITLE=Various Artist - Collections of Jazz - CD 08 (Same as The Story of Jazz #5)
DYEAR=1900
DGENRE=Jazz
TTITLE0=Lester Young - Sunday.mp3
TTITLE1=Charlie Christian - Gone With What Wind.mp3
TTITLE2=Terry Gibbs - Tiny's Con.mp3
TTITLE3=Dexter Gordon - Lullaby In Rhythm.mp3
TTITLE4=Chubby Jackson - Boomsie.mp3
TTITLE5=Art Tatum - Liza.mp3
TTITLE6=Dizzy Gillespie - Something For You.mp3
TTITLE7=Don Lanphere - Spider's Webb.mp3
TTITLE8=Charlie Parker - Bird Feathrers.mp3
TTITLE9=Fats Navarro - Go.mp3
TTITLE10=J. J. Johnson - Tea Pot.mp3
TTITLE11=Kai Winding - Waterworks.mp3
TTITLE12=Sonny Stitt - Fine And Dandy.mp3
TTITLE13=Al Haig - Opus Caprice.mp3
TTITLE14=Leo Parker - Who's Mad.mp3
TTITLE15=Metronome All-Stars - Double Date.mp3
TTITLE16=Bud Powell - Conception.mp3
EXTD=
EXTT0=
EXTT1=
EXTT2=
EXTT3=
EXTT4=
EXTT5=
EXTT6=
EXTT7=
EXTT8=
EXTT9=
EXTT10=
EXTT11=
EXTT12=
EXTT13=
EXTT14=
EXTT15=
EXTT16=
PLAYORDER=
